<?xml version="1.0" encoding="UTF-8" standalone="no"?>
<!-- Created with Inkscape (http://www.inkscape.org/) -->

<svg
   version="1.1"
   id="svg1"
   width="1255.5771"
   height="1179.5327"
   viewBox="0 0 1255.5772 1179.5327"
   sodipodi:docname="Biodevices Without Borders.svg"
   inkscape:version="1.3.2 (091e20e, 2023-11-25, custom)"
   xmlns:inkscape="http://www.inkscape.org/namespaces/inkscape"
   xmlns:sodipodi="http://sodipodi.sourceforge.net/DTD/sodipodi-0.dtd"
   xmlns:xlink="http://www.w3.org/1999/xlink"
   xmlns="http://www.w3.org/2000/svg"
   xmlns:svg="http://www.w3.org/2000/svg">
  <defs
     id="defs1">
    <linearGradient
       id="swatch2"
       inkscape:swatch="solid">
      <stop
         style="stop-color:#000000;stop-opacity:1;"
         offset="0"
         id="stop2" />
    </linearGradient>
    <clipPath
       clipPathUnits="userSpaceOnUse"
       id="clipPath78-9">
      <path
         d="M 0,1020 H 1082.349 V 0 H 0 Z"
         transform="translate(-93.822577,-201.72361)"
         id="path78-4" />
    </clipPath>
    <clipPath
       clipPathUnits="userSpaceOnUse"
       id="clipPath80-8">
      <path
         d="M 0,1020 H 1082.349 V 0 H 0 Z"
         transform="translate(2.5000001e-5)"
         id="path80-6" />
    </clipPath>
    <clipPath
       clipPathUnits="userSpaceOnUse"
       id="clipPath82-8">
      <path
         d="M 0,1020 H 1082.349 V 0 H 0 Z"
         transform="translate(-269.59453,-195.96608)"
         id="path82-0" />
    </clipPath>
    <clipPath
       clipPathUnits="userSpaceOnUse"
       id="clipPath84-3">
      <path
         d="M 0,1020 H 1082.349 V 0 H 0 Z"
         transform="translate(-397.71441,-170.35268)"
         id="path84-8" />
    </clipPath>
    <clipPath
       clipPathUnits="userSpaceOnUse"
       id="clipPath86-3">
      <path
         d="M 0,1020 H 1082.349 V 0 H 0 Z"
         transform="translate(-511.59021,-223.31963)"
         id="path86-0" />
    </clipPath>
    <clipPath
       clipPathUnits="userSpaceOnUse"
       id="clipPath88-7">
      <path
         d="M 0,1020 H 1082.349 V 0 H 0 Z"
         transform="translate(-603.86992,-153.45488)"
         id="path88-1" />
    </clipPath>
    <clipPath
       clipPathUnits="userSpaceOnUse"
       id="clipPath90-0">
      <path
         d="M 0,1020 H 1082.349 V 0 H 0 Z"
         transform="translate(2.5000001e-5)"
         id="path90-4" />
    </clipPath>
    <clipPath
       clipPathUnits="userSpaceOnUse"
       id="clipPath92-7">
      <path
         d="M 0,1020 H 1082.349 V 0 H 0 Z"
         transform="translate(-784.79399,-151.93988)"
         id="path92-5" />
    </clipPath>
    <clipPath
       clipPathUnits="userSpaceOnUse"
       id="clipPath94-5">
      <path
         d="M 0,1020 H 1082.349 V 0 H 0 Z"
         transform="translate(-880.78462,-223.31963)"
         id="path94-3" />
    </clipPath>
    <clipPath
       clipPathUnits="userSpaceOnUse"
       id="clipPath96-1">
      <path
         d="M 0,1020 H 1082.349 V 0 H 0 Z"
         transform="translate(-1012.016,-178.6125)"
         id="path96-2" />
    </clipPath>
    <clipPath
       clipPathUnits="userSpaceOnUse"
       id="clipPath98-2">
      <path
         d="M 0,1020 H 1082.349 V 0 H 0 Z"
         transform="translate(-129.8861,-68.416727)"
         id="path98-8" />
    </clipPath>
    <clipPath
       clipPathUnits="userSpaceOnUse"
       id="clipPath100-7">
      <path
         d="M 0,1020 H 1082.349 V 0 H 0 Z"
         transform="translate(2.5000001e-5)"
         id="path100-5" />
    </clipPath>
    <clipPath
       clipPathUnits="userSpaceOnUse"
       id="clipPath102-5">
      <path
         d="M 0,1020 H 1082.349 V 0 H 0 Z"
         transform="translate(-235.68801,-76.675577)"
         id="path102-2" />
    </clipPath>
    <clipPath
       clipPathUnits="userSpaceOnUse"
       id="clipPath104-8">
      <path
         d="M 0,1020 H 1082.349 V 0 H 0 Z"
         transform="translate(-312.14233,-68.416727)"
         id="path104-4" />
    </clipPath>
    <clipPath
       clipPathUnits="userSpaceOnUse"
       id="clipPath106-3">
      <path
         d="M 0,1020 H 1082.349 V 0 H 0 Z"
         transform="translate(-355.52743,-89.193002)"
         id="path106-9" />
    </clipPath>
    <clipPath
       clipPathUnits="userSpaceOnUse"
       id="clipPath108-7">
      <path
         d="M 0,1020 H 1082.349 V 0 H 0 Z"
         transform="translate(-445.57544,-68.416727)"
         id="path108-7" />
    </clipPath>
    <clipPath
       clipPathUnits="userSpaceOnUse"
       id="clipPath110-9">
      <path
         d="M 0,1020 H 1082.349 V 0 H 0 Z"
         transform="translate(-506.29071,-76.675577)"
         id="path110-6" />
    </clipPath>
    <clipPath
       clipPathUnits="userSpaceOnUse"
       id="clipPath112-6">
      <path
         d="M 0,1020 H 1082.349 V 0 H 0 Z"
         transform="translate(-599.35251,-92.008427)"
         id="path112-8" />
    </clipPath>
    <clipPath
       clipPathUnits="userSpaceOnUse"
       id="clipPath114-0">
      <path
         d="M 0,1020 H 1082.349 V 0 H 0 Z"
         transform="translate(-669.69682,-89.193002)"
         id="path114-3" />
    </clipPath>
    <clipPath
       clipPathUnits="userSpaceOnUse"
       id="clipPath116-8">
      <path
         d="M 0,1020 H 1082.349 V 0 H 0 Z"
         transform="translate(-753.52259,-110.6001)"
         id="path116-1" />
    </clipPath>
    <clipPath
       clipPathUnits="userSpaceOnUse"
       id="clipPath118-7">
      <path
         d="M 0,1020 H 1082.349 V 0 H 0 Z"
         transform="translate(-804.6837,-76.675577)"
         id="path118-0" />
    </clipPath>
    <clipPath
       clipPathUnits="userSpaceOnUse"
       id="clipPath120-5">
      <path
         d="M 0,1020 H 1082.349 V 0 H 0 Z"
         transform="translate(-875.51092,-102.564)"
         id="path120-2" />
    </clipPath>
    <clipPath
       clipPathUnits="userSpaceOnUse"
       id="clipPath122-6">
      <path
         d="M 0,1020 H 1082.349 V 0 H 0 Z"
         transform="translate(-949.03942,-110.6001)"
         id="path122-1" />
    </clipPath>
    <clipPath
       clipPathUnits="userSpaceOnUse"
       id="clipPath124-7">
      <path
         d="M 0,1020 H 1082.349 V 0 H 0 Z"
         transform="translate(-1012.016,-80.713277)"
         id="path124-5" />
    </clipPath>
    <linearGradient
       id="New_Gradient_Swatch_58"
       data-name="New Gradient Swatch 58"
       x1="-388.41"
       y1="342.14001"
       x2="-555.09998"
       y2="221.84"
       gradientTransform="matrix(-1,0,0,1,-122.7,0)"
       gradientUnits="userSpaceOnUse">
      <stop
         offset="0"
         stop-color="#06baf7"
         stop-opacity="0"
         id="stop1" />
      <stop
         offset=".26"
         stop-color="#05b4f3"
         stop-opacity=".03"
         id="stop2-0" />
      <stop
         offset=".45"
         stop-color="#05a4e6"
         stop-opacity=".12"
         id="stop3" />
      <stop
         offset=".61"
         stop-color="#0488d1"
         stop-opacity=".26"
         id="stop4" />
      <stop
         offset=".76"
         stop-color="#0361b3"
         stop-opacity=".48"
         id="stop5" />
      <stop
         offset=".9"
         stop-color="#012f8c"
         stop-opacity=".74"
         id="stop6" />
      <stop
         offset="1"
         stop-color="#000068"
         id="stop7" />
    </linearGradient>
    <linearGradient
       id="linear-gradient"
       x1="364.37"
       y1="172.7"
       x2="364.37"
       y2="534.35999"
       gradientUnits="userSpaceOnUse">
      <stop
         offset="0"
         stop-color="#52e1b1"
         id="stop8" />
      <stop
         offset="1"
         stop-color="#355df2"
         id="stop9" />
    </linearGradient>
    <linearGradient
       id="linear-gradient-2"
       x1="308.35999"
       y1="172.7"
       x2="308.35999"
       y2="534.35999"
       xlink:href="#linear-gradient"
       gradientTransform="matrix(1.8404005,0,0,1.8404005,156.57323,-61.61284)" />
    <linearGradient
       id="linear-gradient-3"
       x1="307"
       y1="172.7"
       x2="307"
       y2="534.35999"
       xlink:href="#linear-gradient"
       gradientTransform="matrix(1.8404005,0,0,1.8404005,156.57323,-61.61284)" />
    <linearGradient
       id="New_Gradient_Swatch_58-2"
       data-name="New Gradient Swatch 58"
       x1="142.14"
       y1="295.59"
       x2="315.44"
       y2="124.57"
       xlink:href="#New_Gradient_Swatch_58"
       gradientTransform="matrix(1.8404005,0,0,1.8404005,156.57323,-61.61284)" />
    <linearGradient
       id="linear-gradient-4"
       x1="399.85999"
       y1="363.17999"
       x2="120.57"
       y2="453.57001"
       gradientUnits="userSpaceOnUse"
       gradientTransform="matrix(1.8404005,0,0,1.8404005,156.57323,-61.61284)">
      <stop
         offset="0"
         stop-color="#06baf7"
         stop-opacity="0"
         id="stop21" />
      <stop
         offset=".19"
         stop-color="#05a2e5"
         stop-opacity=".13"
         id="stop22" />
      <stop
         offset=".53"
         stop-color="#0364b5"
         stop-opacity=".46"
         id="stop23" />
      <stop
         offset=".99"
         stop-color="#000168"
         stop-opacity=".99"
         id="stop24" />
      <stop
         offset="1"
         stop-color="#000068"
         id="stop25" />
    </linearGradient>
    <linearGradient
       inkscape:collect="always"
       xlink:href="#New_Gradient_Swatch_58"
       id="linearGradient25"
       gradientUnits="userSpaceOnUse"
       gradientTransform="matrix(-1.8404005,0,0,1.8404005,-69.243909,-61.61284)"
       x1="-388.41"
       y1="342.14001"
       x2="-555.09998"
       y2="221.84" />
    <linearGradient
       inkscape:collect="always"
       xlink:href="#linear-gradient"
       id="linearGradient26"
       gradientUnits="userSpaceOnUse"
       x1="364.37"
       y1="172.7"
       x2="364.37"
       y2="534.35999"
       gradientTransform="matrix(1.8404005,0,0,1.8404005,156.57323,-61.61284)" />
    <linearGradient
       inkscape:collect="always"
       xlink:href="#linear-gradient-4"
       id="linearGradient2"
       gradientUnits="userSpaceOnUse"
       gradientTransform="matrix(1.8404005,0,0,1.8404005,156.57323,-61.61284)"
       x1="399.85999"
       y1="363.17999"
       x2="120.57"
       y2="453.57001" />
  </defs>
  <sodipodi:namedview
     id="namedview1"
     pagecolor="#505050"
     bordercolor="#ffffff"
     borderopacity="1"
     inkscape:showpageshadow="0"
     inkscape:pageopacity="0"
     inkscape:pagecheckerboard="1"
     inkscape:deskcolor="#505050"
     inkscape:zoom="0.66875"
     inkscape:cx="474.01869"
     inkscape:cy="845.60748"
     inkscape:window-width="3840"
     inkscape:window-height="2054"
     inkscape:window-x="-11"
     inkscape:window-y="-11"
     inkscape:window-maximized="1"
     inkscape:current-layer="layer-MC0">
    <inkscape:page
       x="3.1141677e-05"
       y="1.7993417e-06"
       width="1255.5771"
       height="1179.5327"
       id="page2"
       margin="0"
       bleed="0" />
  </sodipodi:namedview>
  <g
     id="layer-MC0"
     inkscape:groupmode="layer"
     inkscape:label="Layer 1"
     transform="translate(-93.778154,-90.234)">
    <path
       id="path77-7"
       d="m 0,0 v -28.87 h 15.307 c 6.467,0 11.241,1.237 14.322,3.712 3.081,2.476 4.622,6.265 4.622,11.368 C 34.251,-4.596 27.684,0 14.549,0 Z m 0,18.642 h 13.641 c 6.364,0 10.974,0.985 13.828,2.954 2.854,1.971 4.282,5.23 4.282,9.777 0,4.242 -1.553,7.285 -4.66,9.13 -3.108,1.844 -8.022,2.765 -14.738,2.765 H 0 Z m -23.489,43.875 h 34.476 c 15.712,0 27.115,-2.236 34.214,-6.707 7.096,-4.472 10.646,-11.581 10.646,-21.332 0,-6.618 -1.552,-12.048 -4.66,-16.29 -3.108,-4.245 -7.236,-6.796 -12.389,-7.655 V 9.775 c 7.021,-1.566 12.086,-4.496 15.192,-8.79 3.108,-4.293 4.661,-10.001 4.661,-17.124 0,-10.104 -3.651,-17.986 -10.95,-23.643 -7.301,-5.659 -17.213,-8.487 -29.742,-8.487 h -41.448 z"
       style="fill:#030026;fill-opacity:1;fill-rule:nonzero;stroke:none"
       transform="matrix(1.3333333,0,0,-1.3333333,125.0974,1091.0352)"
       clip-path="url(#clipPath78-9)" />
    <path
       id="path79-2"
       d="M 211.411,153.455 H 188.3 v 84.718 h 23.111 z m -24.096,106.616 c 0,7.526 4.193,11.292 12.579,11.292 8.385,0 12.578,-3.766 12.578,-11.292 0,-3.588 -1.048,-6.377 -3.143,-8.373 -2.098,-1.995 -5.243,-2.992 -9.435,-2.992 -8.386,0 -12.579,3.789 -12.579,11.365"
       style="fill:#030026;fill-opacity:1;fill-rule:nonzero;stroke:none"
       transform="matrix(1.3333333,0,0,-1.3333333,6e-4,1360)"
       clip-path="url(#clipPath80-8)" />
    <path
       id="path81-6"
       d="m 0,0 c 0,-8.386 1.375,-14.728 4.129,-19.02 2.752,-4.295 7.236,-6.442 13.45,-6.442 6.162,0 10.595,2.133 13.298,6.404 2.703,4.267 4.055,10.62 4.055,19.058 0,8.385 -1.363,14.674 -4.093,18.867 -2.727,4.193 -7.198,6.291 -13.412,6.291 -6.164,0 -10.608,-2.085 -13.336,-6.253 C 1.364,14.738 0,8.436 0,0 m 58.573,0 c 0,-13.792 -3.637,-24.579 -10.912,-32.358 -7.274,-7.779 -17.402,-11.668 -30.385,-11.668 -8.135,0 -15.307,1.78 -21.52,5.341 -6.214,3.562 -10.987,8.676 -14.322,15.345 -3.335,6.669 -5.001,14.447 -5.001,23.34 0,13.839 3.611,24.6 10.836,32.279 7.223,7.679 17.378,11.518 30.461,11.518 8.133,0 15.307,-1.768 21.52,-5.303 C 45.466,34.957 50.238,29.88 53.572,23.262 56.907,16.644 58.573,8.89 58.573,0"
       style="fill:#030026;fill-opacity:1;fill-rule:nonzero;stroke:none"
       transform="matrix(1.3333333,0,0,-1.3333333,359.46,1098.7119)"
       clip-path="url(#clipPath82-8)" />
    <path
       id="path83-4"
       d="m 0,0 c 5.911,0 10.242,1.717 12.996,5.152 2.754,3.435 4.255,9.27 4.509,17.505 v 2.501 c 0,9.093 -1.402,15.609 -4.207,19.549 -2.803,3.942 -7.363,5.911 -13.676,5.911 -5.152,0 -9.157,-2.185 -12.011,-6.554 -2.854,-4.371 -4.282,-10.722 -4.282,-19.058 0,-8.335 1.441,-14.586 4.32,-18.755 C -9.472,2.084 -5.355,0 0,0 m -8.107,-18.413 c -9.954,0 -17.769,3.864 -23.453,11.593 -5.684,7.73 -8.525,18.439 -8.525,32.129 0,13.892 2.891,24.715 8.676,32.47 5.784,7.754 13.755,11.632 23.908,11.632 10.658,0 18.793,-4.142 24.399,-12.427 h 0.758 C 16.493,63.298 15.914,68.93 15.914,73.882 V 101.01 H 39.101 V -16.898 H 21.369 L 16.898,-5.911 H 15.914 C 10.658,-14.246 2.654,-18.413 -8.107,-18.413"
       style="fill:#030026;fill-opacity:1;fill-rule:nonzero;stroke:none"
       transform="matrix(1.3333333,0,0,-1.3333333,530.2865,1132.8631)"
       clip-path="url(#clipPath84-3)" />
    <path
       id="path85-1"
       d="m 0,0 c -4.901,0 -8.74,-1.553 -11.517,-4.66 -2.778,-3.106 -4.371,-7.515 -4.774,-13.223 H 16.141 C 16.039,-12.175 14.551,-7.766 11.67,-4.66 8.791,-1.553 4.901,0 0,0 m 3.259,-71.38 c -13.639,0 -24.299,3.762 -31.978,11.29 -7.679,7.528 -11.517,18.186 -11.517,31.978 0,14.195 3.548,25.169 10.647,32.924 7.096,7.754 16.909,11.632 29.438,11.632 11.972,0 21.293,-3.41 27.962,-10.229 6.667,-6.82 10.002,-16.243 10.002,-28.265 v -11.214 h -54.635 c 0.253,-6.569 2.198,-11.697 5.835,-15.383 3.637,-3.688 8.74,-5.532 15.307,-5.532 5.101,0 9.926,0.531 14.473,1.59 4.547,1.061 9.294,2.754 14.246,5.079 V -65.393 C 28.997,-67.415 24.677,-68.917 20.081,-69.902 15.485,-70.888 9.877,-71.38 3.259,-71.38"
       style="fill:#030026;fill-opacity:1;fill-rule:nonzero;stroke:none"
       transform="matrix(1.3333333,0,0,-1.3333333,682.1209,1062.2405)"
       clip-path="url(#clipPath86-3)" />
    <path
       id="path87-0"
       d="M 0,0 -32.281,84.718 H -8.108 L 8.26,36.447 c 1.817,-6.113 2.954,-11.895 3.41,-17.351 h 0.454 c 0.251,4.849 1.388,10.633 3.41,17.351 L 31.827,84.718 H 55.999 L 23.718,0 Z"
       style="fill:#030026;fill-opacity:1;fill-rule:nonzero;stroke:none"
       transform="matrix(1.3333333,0,0,-1.3333333,805.1605,1155.3935)"
       clip-path="url(#clipPath88-7)" />
    <path
       id="path89-9"
       d="m 710.623,153.455 h -23.111 v 84.718 h 23.111 z m -24.097,106.616 c 0,7.526 4.193,11.292 12.58,11.292 8.384,0 12.578,-3.766 12.578,-11.292 0,-3.588 -1.048,-6.377 -3.144,-8.373 -2.097,-1.995 -5.243,-2.992 -9.434,-2.992 -8.387,0 -12.58,3.789 -12.58,11.365"
       style="fill:#030026;fill-opacity:1;fill-rule:nonzero;stroke:none"
       transform="matrix(1.3333333,0,0,-1.3333333,6e-4,1360)"
       clip-path="url(#clipPath90-0)" />
    <path
       id="path91-6"
       d="m 0,0 c -26.37,0 -39.555,14.473 -39.555,43.419 0,14.397 3.586,25.396 10.76,33.001 7.172,7.602 17.454,11.404 30.842,11.404 9.799,0 18.588,-1.92 26.369,-5.76 l -6.82,-17.883 c -3.637,1.466 -7.023,2.665 -10.155,3.599 -3.132,0.935 -6.264,1.404 -9.394,1.404 -12.024,0 -18.035,-8.538 -18.035,-25.614 0,-16.57 6.011,-24.855 18.035,-24.855 4.444,0 8.562,0.594 12.35,1.782 3.789,1.186 7.577,3.043 11.366,5.57 V 6.289 C 22.025,3.913 18.248,2.273 14.435,1.364 10.62,0.454 5.808,0 0,0"
       style="fill:#030026;fill-opacity:1;fill-rule:nonzero;stroke:none"
       transform="matrix(1.3333333,0,0,-1.3333333,1046.3926,1157.4135)"
       clip-path="url(#clipPath92-7)" />
    <path
       id="path93-8"
       d="m 0,0 c -4.901,0 -8.74,-1.553 -11.517,-4.66 -2.778,-3.106 -4.371,-7.515 -4.774,-13.223 H 16.141 C 16.039,-12.175 14.551,-7.766 11.67,-4.66 8.791,-1.553 4.901,0 0,0 m 3.259,-71.38 c -13.639,0 -24.299,3.762 -31.978,11.29 -7.679,7.528 -11.517,18.186 -11.517,31.978 0,14.195 3.548,25.169 10.647,32.924 7.096,7.754 16.909,11.632 29.438,11.632 11.972,0 21.293,-3.41 27.962,-10.229 6.667,-6.82 10.002,-16.243 10.002,-28.265 v -11.214 h -54.635 c 0.253,-6.569 2.198,-11.697 5.835,-15.383 3.637,-3.688 8.74,-5.532 15.307,-5.532 5.101,0 9.926,0.531 14.473,1.59 4.547,1.061 9.294,2.754 14.246,5.079 V -65.393 C 28.997,-67.415 24.677,-68.917 20.081,-69.902 15.485,-70.888 9.877,-71.38 3.259,-71.38"
       style="fill:#030026;fill-opacity:1;fill-rule:nonzero;stroke:none"
       transform="matrix(1.3333333,0,0,-1.3333333,1174.3801,1062.2405)"
       clip-path="url(#clipPath94-5)" />
    <path
       id="path95-7"
       d="m 0,0 c 0,-8.689 -3.021,-15.307 -9.056,-19.854 -6.037,-4.545 -15.067,-6.819 -27.091,-6.819 -6.164,0 -11.416,0.417 -15.761,1.251 -4.344,0.832 -8.411,2.057 -12.199,3.675 v 19.095 c 4.293,-2.022 9.131,-3.713 14.511,-5.076 5.381,-1.366 10.117,-2.047 14.208,-2.047 8.384,0 12.578,2.425 12.578,7.275 0,1.817 -0.556,3.296 -1.667,4.433 -1.112,1.137 -3.03,2.425 -5.759,3.864 -2.727,1.439 -6.365,3.119 -10.911,5.039 -6.516,2.727 -11.304,5.254 -14.36,7.577 -3.057,2.324 -5.279,4.989 -6.667,7.995 -1.39,3.005 -2.085,6.707 -2.085,11.1 0,7.528 2.917,13.35 8.752,17.468 5.835,4.117 14.106,6.175 24.817,6.175 10.204,0 20.13,-2.222 29.78,-6.667 L -7.881,37.813 c -4.245,1.818 -8.211,3.308 -11.897,4.469 -3.689,1.162 -7.453,1.744 -11.29,1.744 -6.821,0 -10.231,-1.844 -10.231,-5.532 0,-2.071 1.099,-3.864 3.297,-5.379 2.198,-1.517 7.01,-3.764 14.435,-6.745 6.616,-2.678 11.468,-5.179 14.549,-7.501 3.081,-2.325 5.354,-5.001 6.82,-8.033 C -0.734,7.806 0,4.193 0,0"
       style="fill:#030026;fill-opacity:1;fill-rule:nonzero;stroke:none"
       transform="matrix(1.3333333,0,0,-1.3333333,1349.3552,1121.85)"
       clip-path="url(#clipPath96-1)" />
    <path
       id="path97-9"
       d="m 0,0 h -13.073 l -7.333,28.444 c -0.273,1.01 -0.735,3.103 -1.389,6.276 -0.655,3.173 -1.031,5.303 -1.13,6.389 -0.148,-1.333 -0.519,-3.476 -1.11,-6.426 -0.594,-2.95 -1.05,-5.054 -1.371,-6.314 L -32.702,0 h -13.036 l -13.815,54.145 h 11.295 l 6.926,-29.554 c 1.21,-5.456 2.088,-10.185 2.63,-14.183 0.148,1.406 0.487,3.584 1.019,6.536 0.529,2.951 1.031,5.24 1.499,6.87 l 7.888,30.331 h 10.852 l 7.888,-30.331 c 0.346,-1.359 0.779,-3.433 1.297,-6.222 0.519,-2.791 0.914,-5.185 1.185,-7.184 0.247,1.924 0.642,4.326 1.185,7.203 0.543,2.875 1.037,5.202 1.483,6.98 l 6.888,29.554 h 11.295 z"
       style="fill:#030026;fill-opacity:1;fill-rule:nonzero;stroke:none"
       transform="matrix(1.3333333,0,0,-1.3333333,173.1821,1268.7777)"
       clip-path="url(#clipPath98-2)" />
    <path
       id="path99-9"
       d="m 183.64,68.417 h -11.295 v 41.405 h 11.295 z m -11.778,52.108 c 0,3.678 2.049,5.518 6.149,5.518 4.097,0 6.147,-1.84 6.147,-5.518 0,-1.752 -0.513,-3.117 -1.537,-4.092 -1.025,-0.975 -2.562,-1.462 -4.61,-1.462 -4.1,0 -6.149,1.851 -6.149,5.554"
       style="fill:#030026;fill-opacity:1;fill-rule:nonzero;stroke:none"
       transform="matrix(1.3333333,0,0,-1.3333333,6e-4,1360)"
       clip-path="url(#clipPath100-7)" />
    <path
       id="path101-3"
       d="M 0,0 C 1.975,0 4.347,0.432 7.111,1.295 V -7.111 C 4.296,-8.369 0.839,-9 -3.259,-9 c -4.519,0 -7.808,1.142 -9.869,3.425 -2.063,2.284 -3.094,5.71 -3.094,10.279 v 19.962 h -5.406 v 4.777 l 6.222,3.778 3.259,8.74 h 7.222 V 33.146 H 6.666 v -8.48 H -4.925 V 4.704 c 0,-1.606 0.449,-2.791 1.352,-3.557 C -2.673,0.382 -1.481,0 0,0"
       style="fill:#030026;fill-opacity:1;fill-rule:nonzero;stroke:none"
       transform="matrix(1.3333333,0,0,-1.3333333,314.2513,1257.7659)"
       clip-path="url(#clipPath102-5)" />
    <path
       id="path103-1"
       d="m 0,0 h -11.295 v 24.183 c 0,5.975 -2.222,8.963 -6.666,8.963 -3.162,0 -5.445,-1.073 -6.851,-3.222 -1.408,-2.147 -2.112,-5.629 -2.112,-10.443 V 0 h -11.295 v 57.627 h 11.295 V 45.886 c 0,-0.913 -0.086,-3.061 -0.26,-6.443 l -0.258,-3.334 h 0.593 c 2.518,4.049 6.518,6.074 11.999,6.074 4.863,0 8.555,-1.308 11.072,-3.925 C -1.258,35.639 0,31.888 0,26.998 Z"
       style="fill:#030026;fill-opacity:1;fill-rule:nonzero;stroke:none"
       transform="matrix(1.3333333,0,0,-1.3333333,416.1904,1268.7777)"
       clip-path="url(#clipPath104-8)" />
    <path
       id="path105-1"
       d="m 0,0 c 0,-4.098 0.672,-7.197 2.02,-9.296 1.344,-2.098 3.536,-3.147 6.572,-3.147 3.012,0 5.18,1.043 6.501,3.128 1.32,2.088 1.981,5.191 1.981,9.315 0,4.099 -0.667,7.173 -2,9.223 -1.334,2.048 -3.519,3.074 -6.555,3.074 -3.014,0 -5.185,-1.019 -6.518,-3.055 C 0.666,7.203 0,4.124 0,0 m 28.629,0 c 0,-6.741 -1.778,-12.012 -5.333,-15.814 -3.555,-3.802 -8.506,-5.704 -14.852,-5.704 -3.976,0 -7.48,0.871 -10.518,2.612 -3.036,1.741 -5.369,4.24 -6.999,7.5 -1.631,3.259 -2.445,7.061 -2.445,11.406 0,6.765 1.765,12.025 5.296,15.778 3.53,3.752 8.494,5.629 14.889,5.629 3.974,0 7.48,-0.865 10.518,-2.592 3.036,-1.728 5.371,-4.21 6.999,-7.445 C 27.815,8.135 28.629,4.347 28.629,0"
       style="fill:#030026;fill-opacity:1;fill-rule:nonzero;stroke:none"
       transform="matrix(1.3333333,0,0,-1.3333333,474.0372,1241.076)"
       clip-path="url(#clipPath106-3)" />
    <path
       id="path107-7"
       d="M 0,0 -1.518,5.296 H -2.112 C -3.321,3.369 -5.037,1.883 -7.259,0.833 c -2.222,-1.048 -4.753,-1.574 -7.593,-1.574 -4.863,0 -8.53,1.303 -10.999,3.908 -2.469,2.604 -3.703,6.352 -3.703,11.239 v 26.999 h 11.295 V 17.222 c 0,-2.988 0.532,-5.229 1.593,-6.722 1.062,-1.494 2.754,-2.241 5.073,-2.241 3.162,0 5.446,1.056 6.853,3.167 1.408,2.11 2.11,5.61 2.11,10.5 V 41.405 H 8.667 V 0 Z"
       style="fill:#030026;fill-opacity:1;fill-rule:nonzero;stroke:none"
       transform="matrix(1.3333333,0,0,-1.3333333,594.1012,1268.7777)"
       clip-path="url(#clipPath108-7)" />
    <path
       id="path109-2"
       d="M 0,0 C 1.975,0 4.347,0.432 7.111,1.295 V -7.111 C 4.296,-8.369 0.839,-9 -3.259,-9 c -4.519,0 -7.808,1.142 -9.869,3.425 -2.063,2.284 -3.094,5.71 -3.094,10.279 v 19.962 h -5.406 v 4.777 l 6.222,3.778 3.259,8.74 h 7.222 V 33.146 H 6.666 v -8.48 H -4.925 V 4.704 c 0,-1.606 0.449,-2.791 1.352,-3.557 C -2.673,0.382 -1.481,0 0,0"
       style="fill:#030026;fill-opacity:1;fill-rule:nonzero;stroke:none"
       transform="matrix(1.3333333,0,0,-1.3333333,675.0549,1257.7659)"
       clip-path="url(#clipPath110-9)" />
    <path
       id="path111-8"
       d="m 0,0 v -14.11 h 7.48 c 3.16,0 5.494,0.604 7.001,1.813 1.505,1.21 2.258,3.063 2.258,5.556 C 16.739,-2.246 13.53,0 7.109,0 Z m 0,9.111 h 6.666 c 3.111,0 5.363,0.481 6.759,1.445 1.395,0.962 2.093,2.555 2.093,4.777 0,2.074 -0.76,3.56 -2.278,4.462 -1.518,0.901 -3.92,1.352 -7.203,1.352 L 0,21.147 Z M -11.482,30.553 H 5.369 c 7.678,0 13.253,-1.091 16.721,-3.277 3.469,-2.185 5.204,-5.661 5.204,-10.425 0,-3.235 -0.758,-5.889 -2.278,-7.963 C 23.498,6.814 21.48,5.567 18.962,5.148 V 4.777 c 3.432,-0.765 5.906,-2.198 7.424,-4.296 1.52,-2.098 2.278,-4.887 2.278,-8.369 0,-4.938 -1.783,-8.791 -5.351,-11.555 -3.568,-2.765 -8.413,-4.149 -14.536,-4.149 h -20.259 z"
       style="fill:#030026;fill-opacity:1;fill-rule:nonzero;stroke:none"
       transform="matrix(1.3333333,0,0,-1.3333333,799.1373,1237.3221)"
       clip-path="url(#clipPath112-6)" />
    <path
       id="path113-1"
       d="m 0,0 c 0,-4.098 0.672,-7.197 2.02,-9.296 1.344,-2.098 3.536,-3.147 6.572,-3.147 3.012,0 5.18,1.043 6.501,3.128 1.32,2.088 1.981,5.191 1.981,9.315 0,4.099 -0.667,7.173 -2,9.223 -1.334,2.048 -3.519,3.074 -6.555,3.074 -3.014,0 -5.185,-1.019 -6.518,-3.055 C 0.666,7.203 0,4.124 0,0 m 28.629,0 c 0,-6.741 -1.778,-12.012 -5.333,-15.814 -3.555,-3.802 -8.506,-5.704 -14.852,-5.704 -3.976,0 -7.48,0.871 -10.518,2.612 -3.036,1.741 -5.369,4.24 -6.999,7.5 -1.631,3.259 -2.445,7.061 -2.445,11.406 0,6.765 1.765,12.025 5.296,15.778 3.53,3.752 8.495,5.629 14.889,5.629 3.974,0 7.48,-0.865 10.518,-2.592 3.036,-1.728 5.371,-4.21 6.999,-7.445 C 27.815,8.135 28.629,4.347 28.629,0"
       style="fill:#030026;fill-opacity:1;fill-rule:nonzero;stroke:none"
       transform="matrix(1.3333333,0,0,-1.3333333,892.9297,1241.076)"
       clip-path="url(#clipPath114-0)" />
    <path
       id="path115-0"
       d="M 0,0 C 1.531,0 2.802,-0.11 3.815,-0.333 L 2.963,-10.926 c -0.913,0.247 -2.025,0.37 -3.334,0.37 -3.603,0 -6.413,-0.924 -8.425,-2.778 -2.012,-1.851 -3.018,-4.443 -3.018,-7.775 v -21.074 h -11.295 v 41.404 h 8.555 l 1.666,-6.961 h 0.556 c 1.284,2.321 3.017,4.191 5.204,5.61 C -4.944,-0.709 -2.568,0 0,0"
       style="fill:#030026;fill-opacity:1;fill-rule:nonzero;stroke:none"
       transform="matrix(1.3333333,0,0,-1.3333333,1004.6974,1212.5332)"
       clip-path="url(#clipPath116-8)" />
    <path
       id="path117-7"
       d="m 0,0 c 2.89,0 5.005,0.839 6.351,2.518 1.346,1.679 2.082,4.532 2.205,8.556 v 1.223 c 0,4.443 -0.685,7.628 -2.055,9.554 -1.37,1.926 -3.6,2.888 -6.686,2.888 -2.518,0 -4.474,-1.067 -5.869,-3.203 -1.396,-2.136 -2.093,-5.241 -2.093,-9.314 0,-4.074 0.704,-7.13 2.11,-9.167 C -4.629,1.018 -2.617,0 0,0 m -3.963,-9 c -4.863,0 -8.684,1.889 -11.461,5.666 -2.778,3.778 -4.167,9.013 -4.167,15.704 0,6.789 1.413,12.079 4.241,15.87 2.827,3.788 6.722,5.685 11.685,5.685 5.209,0 9.183,-2.026 11.924,-6.075 h 0.37 C 8.062,30.937 7.778,33.689 7.778,36.109 V 49.368 H 19.11 V -8.259 H 10.445 L 8.259,-2.888 H 7.778 C 5.209,-6.964 1.297,-9 -3.963,-9"
       style="fill:#030026;fill-opacity:1;fill-rule:nonzero;stroke:none"
       transform="matrix(1.3333333,0,0,-1.3333333,1072.9122,1257.7659)"
       clip-path="url(#clipPath118-7)" />
    <path
       id="path119-0"
       d="M 0,0 C -2.396,0 -4.272,-0.76 -5.629,-2.278 -6.988,-3.796 -7.765,-5.951 -7.963,-8.742 H 7.888 C 7.84,-5.951 7.111,-3.796 5.704,-2.278 4.296,-0.76 2.394,0 0,0 m 1.593,-34.889 c -6.668,0 -11.877,1.841 -15.63,5.519 -3.754,3.678 -5.629,8.889 -5.629,15.628 0,6.939 1.735,12.303 5.204,16.093 3.468,3.789 8.264,5.685 14.387,5.685 5.852,0 10.408,-1.666 13.667,-5 3.259,-3.334 4.889,-7.939 4.889,-13.814 v -5.481 H -8.221 c 0.123,-3.211 1.072,-5.717 2.851,-7.518 1.778,-1.803 4.271,-2.705 7.482,-2.705 2.493,0 4.85,0.26 7.073,0.779 2.222,0.518 4.542,1.346 6.962,2.482 v -8.742 c -1.975,-0.986 -4.086,-1.722 -6.333,-2.203 -2.246,-0.481 -4.988,-0.723 -8.221,-0.723"
       style="fill:#030026;fill-opacity:1;fill-rule:nonzero;stroke:none"
       transform="matrix(1.3333333,0,0,-1.3333333,1167.3485,1223.248)"
       clip-path="url(#clipPath120-5)" />
    <path
       id="path121-2"
       d="M 0,0 C 1.531,0 2.802,-0.11 3.815,-0.333 L 2.963,-10.926 c -0.913,0.247 -2.025,0.37 -3.334,0.37 -3.603,0 -6.413,-0.924 -8.425,-2.778 -2.012,-1.851 -3.018,-4.443 -3.018,-7.775 v -21.074 h -11.295 v 41.404 h 8.555 l 1.666,-6.961 h 0.556 c 1.284,2.321 3.017,4.191 5.204,5.61 C -4.944,-0.709 -2.568,0 0,0"
       style="fill:#030026;fill-opacity:1;fill-rule:nonzero;stroke:none"
       transform="matrix(1.3333333,0,0,-1.3333333,1265.3865,1212.5332)"
       clip-path="url(#clipPath122-6)" />
    <path
       id="path123-6"
       d="m 0,0 c 0,-4.247 -1.477,-7.482 -4.427,-9.704 -2.95,-2.222 -7.364,-3.334 -13.24,-3.334 -3.012,0 -5.58,0.204 -7.703,0.612 -2.123,0.406 -4.111,1.006 -5.962,1.795 v 9.334 c 2.098,-0.989 4.463,-1.814 7.093,-2.48 2.628,-0.669 4.943,-1.002 6.943,-1.002 4.099,0 6.147,1.185 6.147,3.557 0,0.887 -0.271,1.609 -0.814,2.165 -0.543,0.556 -1.481,1.185 -2.814,1.889 -1.334,0.704 -3.111,1.524 -5.333,2.464 -3.186,1.332 -5.526,2.566 -7.02,3.702 -1.493,1.137 -2.579,2.439 -3.258,3.909 -0.68,1.467 -1.019,3.277 -1.019,5.425 0,3.678 1.427,6.523 4.277,8.535 2.853,2.013 6.895,3.02 12.13,3.02 4.987,0 9.839,-1.088 14.555,-3.259 l -3.407,-8.149 c -2.074,0.89 -4.012,1.618 -5.815,2.185 -1.802,0.569 -3.642,0.854 -5.518,0.854 -3.334,0 -5,-0.903 -5,-2.705 0,-1.013 0.537,-1.889 1.612,-2.629 1.073,-0.741 3.426,-1.84 7.055,-3.296 3.233,-1.31 5.605,-2.531 7.11,-3.667 C -2.901,8.085 -1.791,6.776 -1.074,5.296 -0.359,3.813 0,2.048 0,0"
       style="fill:#030026;fill-opacity:1;fill-rule:nonzero;stroke:none"
       transform="matrix(1.3333333,0,0,-1.3333333,1349.3552,1252.3823)"
       clip-path="url(#clipPath124-7)" />
    <path
       class="cls-3"
       d="M 868.8082,446.26408 708.56457,251.36567 721.66822,235.70386 877.8078,422.39409 c 30.7531,36.7712 47.3903,82.7076 47.3903,130.37397 0,3.05506 -0.074,6.12853 -0.2024,9.202 -1.7852,39.66063 -14.9441,77.35204 -37.6362,109.09895 41.2618,-71.48116 33.8818,-161.05345 -18.5329,-224.80493 z"
       id="path14-1"
       style="fill:url(#linearGradient25);stroke-width:0px" />
    <path
       class="cls-1"
       d="m 856.9745,544.30222 c -0.1657,39.93669 -16.3796,75.93492 -42.5685,102.16063 -11.5577,11.53931 -25.0294,21.1278 -39.88147,28.26855 -8.59467,4.1225 -11.59453,14.85203 -6.4414,22.85778 v 0 c 4.32494,6.71746 13.01163,9.25721 20.226,5.79726 59.42657,-28.58142 100.46747,-89.31464 100.46747,-159.67315 0,-9.29402 -7.9689,-16.72924 -17.447,-15.82744 -8.1714,0.77296 -14.3183,8.22659 -14.3551,16.43477 z"
       id="path15"
       style="fill:url(#linearGradient26);stroke-width:0px" />
    <circle
       class="cls-4"
       cx="724.07904"
       cy="704.91394"
       r="23.115431"
       id="circle15"
       style="fill:url(#linear-gradient-2);stroke-width:0px" />
    <path
       class="cls-5"
       d="m 1076.0926,637.59212 -48.513,-31.85733 c -1.7116,-1.12265 -2.595,-3.14709 -2.2637,-5.17153 2.5398,-16.01148 3.9017,-32.1702 3.9017,-48.36572 0,-15.31214 -1.1779,-30.60586 -3.46,-45.78917 -0.2945,-2.00604 0.5705,-3.99367 2.2637,-5.11631 l 47.9424,-31.58128 c 7.1776,-4.72982 9.9934,-13.89502 6.6991,-21.84555 l -28.9863,-69.8248 c -3.2943,-7.95053 -11.7786,-12.4227 -20.1892,-10.67432 l -54.163,11.22644 c -2.0428,0.4233 -4.1225,-0.42329 -5.3188,-2.13486 -5.1163,-7.3616 -10.5639,-14.55757 -16.4163,-21.55109 L 745.70385,101.48345 c -12.55153,-14.999266 -35.59334,-14.999266 -48.14487,0 L 485.61845,354.9066 c -5.94449,7.12235 -11.5025,14.44714 -16.71083,21.95598 -1.19626,1.71157 -3.25751,2.55815 -5.31876,2.13486 l -54.16299,-11.13442 c -8.42903,-1.72998 -16.89488,2.7606 -20.18919,10.71113 l -28.87589,69.88001 c -3.29431,7.95053 -0.4601,17.11572 6.73587,21.82715 l 48.03445,31.54446 c 1.69317,1.10424 2.57656,3.11028 2.2637,5.11632 -4.63781,31.25 -4.45377,63.01531 0.53371,94.15489 0.33127,2.02444 -0.55212,4.03047 -2.26369,5.15312 l -48.43934,31.91254 c -7.17756,4.72983 -9.99338,13.89503 -6.69906,21.84556 l 28.98631,69.82479 c 3.29431,7.95053 11.77856,12.42271 20.2076,10.67433 l 56.20583,-11.64974 c 2.02444,-0.42329 4.08569,0.40489 5.28195,2.07965 9.73572,13.63737 20.64929,26.66741 32.85115,38.86926 12.8644,12.846 26.61219,24.27489 40.98572,34.36028 1.69316,1.19626 2.53975,3.25751 2.11646,5.30035 l -11.64974,56.64753 c -1.72998,8.42904 2.7606,16.89488 10.71113,20.1892 l 69.88001,28.87588 c 7.95053,3.29432 17.11572,0.4601 21.82715,-6.73587 l 32.66711,-49.74602 c 1.12264,-1.72998 3.16549,-2.57656 5.20833,-2.2821 0,0 0.0184,0 0.0368,0 2.50295,0.36808 5.02429,0.73616 7.52724,1.04903 6.58863,0.82818 13.17727,1.47232 19.82111,1.822 1.19626,0.11042 2.46614,0.16563 3.6624,0.20244 4.91387,0.25766 9.82774,0.36808 14.76001,0.36808 10.1038,0 20.24441,-0.4785 30.29299,-1.50913 5.39238,-0.51531 10.71114,-1.19626 16.0483,-2.02444 2.00603,-0.31287 4.03047,0.57053 5.13471,2.26369 l 32.7407,49.69082 c 4.7299,7.17756 13.8951,9.99337 21.8456,6.69906 l 69.8248,-28.98631 c 7.9505,-3.29432 12.4227,-11.77856 10.6743,-20.2076 l -11.7417,-56.61072 c -0.4233,-2.02444 0.4048,-4.10409 2.098,-5.30035 14.2447,-10.03019 27.8269,-21.36705 40.5624,-34.08422 12.3307,-12.33068 23.3179,-25.50795 33.1273,-39.27415 1.1962,-1.67476 3.2575,-2.50294 5.2635,-2.07965 l 56.2794,11.57612 c 8.4291,1.72998 16.8949,-2.7606 20.1892,-10.71113 l 28.8759,-69.88001 c 3.2943,-7.95053 0.4601,-17.11572 -6.7358,-21.82715 z M 717.58253,240.58092 c 2.07966,-2.48454 5.90769,-2.48454 7.98734,0 l 6.36779,7.61926 145.37324,173.82583 c 32.6487,39.01649 49.3227,88.50486 47.0774,139.29991 -2.2452,50.79506 -23.3362,98.55345 -59.2609,134.47807 -38.3355,38.33554 -89.3514,59.48174 -143.53279,59.48174 -54.18139,0 -105.1973,-21.12779 -143.53284,-59.48174 -35.97983,-35.94302 -57.01561,-83.70142 -59.2609,-134.47807 -2.3005,-50.79505 14.42874,-100.28342 47.07745,-139.29991 l 145.37324,-173.82583 6.36778,-7.61926 z"
       id="path16-2"
       style="fill:url(#linear-gradient-3);stroke-width:0px" />
    <path
       class="cls-2"
       d="m 367.04145,470.2629 48.03445,31.54447 c 1.69317,1.10424 2.57656,3.11028 2.26369,5.11631 -0.34967,2.41093 -0.62573,4.84026 -0.9386,7.25118 H 522.1136 c 6.40459,-33.67933 21.31183,-65.38943 43.70951,-92.16726 l 145.37324,-173.82583 6.36778,-7.61925 c 2.07965,-2.48455 5.90769,-2.48455 7.98734,0 l -33.71614,-40.30478 c -20.04196,-23.96201 -56.88678,-23.9068 -76.85512,0.092 l -16.85807,20.26281 -64.59806,77.24161 -38.20672,45.71555 c 0,0 -0.11042,0.18404 -0.23925,0.23925 -0.092,0.0368 -0.18404,0 -0.27606,0.0368 l -9.23881,11.06081 c -5.94449,7.12235 -11.5025,14.44714 -16.71084,21.95598 -1.19626,1.71157 -3.2575,2.55815 -5.31875,2.13486 l -54.16299,-11.13442 c -8.42903,-1.72998 -16.89488,2.7606 -20.18919,10.71113 l -28.87589,69.88001 c -3.29432,7.95053 -0.4601,17.11572 6.73587,21.82715 z"
       id="path17"
       style="fill:url(#New_Gradient_Swatch_58-2);stroke-width:0px" />
    <path
       class="cls-6"
       d="m 1053.9341,729.29928 28.8759,-69.88001 c 3.2943,-7.95053 0.4601,-17.11572 -6.7358,-21.82715 l -48.513,-31.85733 c -1.7116,-1.12265 -2.595,-3.14709 -2.2637,-5.17153 2.5398,-16.01148 3.9017,-32.1702 3.9017,-48.36572 0,-15.31214 -1.1779,-30.60586 -3.46,-45.78917 -0.055,-0.40489 -0.037,-0.80978 0,-1.19626 -30.5507,-41.16976 -65.187,-77.79373 -96.8787,-104.16667 -34.6731,-28.83908 -74.5178,-47.3167 -115.7796,-55.85615 l 64.2484,76.81831 c 32.6487,39.01649 49.3227,88.50486 47.0774,139.29992 -2.2452,50.79505 -23.3362,98.55345 -59.2609,134.47806 -38.3355,38.33555 -89.3514,59.48175 -143.53279,59.48175 -54.18139,0 -105.19729,-21.1278 -143.53283,-59.48175 -35.97983,-35.94302 -57.01561,-83.70141 -59.2609,-134.47806 -0.14723,-3.05507 -0.20245,-6.09173 -0.20245,-9.12839 0,-1.06743 0.0368,-2.13486 0.0552,-3.2023 0.0368,-1.96922 0.0552,-3.92005 0.14723,-5.87087 0.0552,-1.30669 0.16563,-2.59497 0.23925,-3.90165 0.11042,-1.69317 0.20244,-3.40474 0.36808,-5.09791 0.12883,-1.43551 0.29446,-2.85262 0.4601,-4.28813 0.16564,-1.54594 0.33127,-3.07347 0.55212,-4.61941 0.20245,-1.52753 0.4417,-3.05506 0.68095,-4.56419 0.22085,-1.39871 0.4417,-2.81582 0.69935,-4.21452 0.29447,-1.61955 0.60733,-3.2207 0.93861,-4.82185 0.25765,-1.28828 0.53371,-2.55816 0.80977,-3.82803 0.38649,-1.69317 0.79137,-3.38634 1.21467,-5.07951 0.29446,-1.12264 0.58892,-2.26369 0.88339,-3.38634 0.4785,-1.80359 0.99381,-3.58878 1.52753,-5.37396 0.29447,-0.95701 0.58893,-1.91402 0.9018,-2.87103 0.60733,-1.91402 1.23307,-3.84644 1.89561,-5.74205 0.25766,-0.73616 0.53372,-1.45392 0.79137,-2.19008 0.75457,-2.09805 1.54594,-4.19611 2.37412,-6.27576 0.14723,-0.36808 0.31287,-0.73616 0.4601,-1.10424 6.38619,-15.66181 14.74161,-30.55065 24.95583,-44.33525 -1.14105,1.30668 -2.3189,2.57656 -3.42315,3.92005 -93.75,112.66932 -78.40106,280.01694 34.26826,373.76694 25.87603,21.53269 54.64149,37.23131 84.71364,47.39032 0.55212,-0.092 1.12264,-0.12883 1.71157,-0.0368 0,0 0.0184,0 0.0368,0 2.50294,0.36808 5.02429,0.73616 7.52724,1.04903 6.58863,0.82818 13.17726,1.47232 19.82111,1.82199 1.19626,0.11043 2.46614,0.16564 3.6624,0.20245 4.91387,0.25766 9.82774,0.36808 14.76001,0.36808 10.1038,0 20.24441,-0.47851 30.29299,-1.50913 5.39238,-0.51531 10.71113,-1.19626 16.0483,-2.02444 2.00603,-0.31287 4.01207,0.57052 5.13471,2.26369 l 32.74071,49.69082 c 4.7299,7.17756 13.8951,9.99337 21.8456,6.69905 l 69.8248,-28.9863 c 7.9505,-3.29432 12.4227,-11.77857 10.6743,-20.1892 l -11.7417,-56.61072 c -0.4233,-2.02444 0.4049,-4.10409 2.098,-5.30035 14.2447,-10.03018 27.8269,-21.36705 40.5624,-34.08422 12.7356,-12.71717 23.3179,-25.50795 33.1273,-39.27415 1.1962,-1.67476 3.2575,-2.50294 5.2635,-2.07965 l 56.2795,11.57612 c 8.429,1.72998 16.8948,-2.7606 20.1891,-10.71113 z"
       id="path18-7"
       style="fill:url(#linearGradient2);stroke-width:0px" />
  </g>
</svg>
